<svg xmlns="http://www.w3.org/2000/svg" viewBox="0 0 71.33 69.86"><defs><style>.cls-1{fill:#ff865e;}.cls-2{fill:#2e55a5;}</style></defs><title>Asset 1</title><g id="Layer_2" data-name="Layer 2"><g id="Laag_1" data-name="Laag 1"><path class="cls-1" d="M46.5,33.83a10.15,10.15,0,1,1-11.2-9,10.16,10.16,0,0,1,11.2,9"/><path class="cls-1" d="M33.07,21.06c13.86,2.12,15.87-7.18,15.87-7.18l.26-.76A25.3,25.3,0,0,0,12,28.46c2-1.81,10.88-9,21.11-7.4"/><path class="cls-1" d="M50.48,39.69C41.61,50.54,48.6,57,48.6,57l0,.06A25.28,25.28,0,0,0,54.81,17.6c.48,2.35,2.36,13.9-4.33,22.09"/><path class="cls-1" d="M25.27,44.88c-4.88-12-12.93-10.32-14.15-10a26,26,0,0,0,.15,2.78A25.29,25.29,0,0,0,39.15,60.06a26.13,26.13,0,0,0,3.79-.7c-1.08-.31-13.41-4-17.67-14.48"/><circle class="cls-1" cx="3.8" cy="35.58" r="3.8" transform="translate(-2.31 0.32) rotate(-3.73)"/><circle class="cls-1" cx="53.31" cy="62.97" r="3.8" transform="translate(-3.98 3.6) rotate(-3.73)"/><path class="cls-2" d="M47.34,65.91a6.63,6.63,0,0,1-.66-2.45,30.75,30.75,0,0,1-5,1.33A30.31,30.31,0,0,1,6.81,41.51l-.07,0A6.61,6.61,0,0,1,2.22,42,34.92,34.92,0,0,0,42.47,69.32a34.06,34.06,0,0,0,6.12-1.67A6.89,6.89,0,0,1,47.34,65.91Z"/><path class="cls-2" d="M6.56,29.53A30.35,30.35,0,0,1,45,5.84a6.63,6.63,0,0,1,2.1-4.16A34.91,34.91,0,0,0,2,29.2,6.58,6.58,0,0,1,6.56,29.53Z"/><path class="cls-2" d="M70.8,28.86A34.78,34.78,0,0,0,58.15,7.61a6.68,6.68,0,0,1-2.3,4.06,30.29,30.29,0,0,1,1,45.66A6.4,6.4,0,0,1,59.65,61,34.89,34.89,0,0,0,70.8,28.86Z"/><circle class="cls-1" cx="51.59" cy="6.57" r="3.8" transform="translate(-0.32 3.37) rotate(-3.73)"/></g></g></svg>