<?xml version="1.0" standalone="no"?>
<!DOCTYPE svg PUBLIC "-//W3C//DTD SVG 20010904//EN"
 "http://www.w3.org/TR/2001/REC-SVG-20010904/DTD/svg10.dtd">
<svg version="1.0" xmlns="http://www.w3.org/2000/svg"
 width="568.000000pt" height="568.000000pt" viewBox="0 0 568.000000 568.000000"
 preserveAspectRatio="xMidYMid meet">
<metadata>
Created by potrace 1.11, written by Peter Selinger 2001-2013
</metadata>
<g transform="translate(0.000000,568.000000) scale(0.100000,-0.100000)"
fill="#000000" stroke="none">
<path d="M2708 5615 c-1 -2 -32 -6 -68 -9 -100 -9 -151 -16 -205 -26 -27 -5
-61 -12 -75 -14 -54 -9 -130 -28 -230 -57 -58 -17 -109 -32 -115 -33 -5 -2
-19 -7 -30 -11 -11 -4 -54 -21 -95 -37 -418 -166 -780 -419 -1073 -750 -30
-35 -66 -76 -78 -93 -13 -16 -26 -32 -29 -35 -21 -20 -137 -189 -194 -284
-132 -218 -261 -531 -311 -750 -25 -113 -45 -210 -42 -212 2 -2 28 1 59 5 63
11 182 5 210 -10 10 -5 18 -7 18 -4 0 3 16 -1 35 -9 34 -15 35 -15 41 12 3 15
9 36 12 47 3 11 7 26 8 34 2 7 8 36 15 65 7 28 14 54 15 59 1 4 3 9 4 12 1 3
3 8 4 13 39 151 169 436 276 605 165 260 415 518 675 699 229 159 586 314 838
364 104 20 197 37 227 39 19 2 62 6 95 10 172 18 443 5 631 -30 49 -9 123 -25
166 -36 94 -23 97 -23 95 0 -4 55 71 210 135 277 l29 31 -96 27 c-53 15 -106
29 -118 32 -12 2 -33 6 -47 10 -39 9 -169 32 -225 39 -27 4 -63 9 -80 11 -37
6 -472 14 -477 9z"/>
<path d="M4035 5391 c-133 -35 -228 -159 -226 -294 1 -68 5 -86 31 -137 64
-125 206 -188 344 -153 266 67 304 434 58 561 -48 24 -157 37 -207 23z"/>
<path d="M4611 4942 c-22 -74 -84 -178 -132 -222 l-31 -28 43 -38 c257 -225
481 -531 619 -844 40 -91 115 -304 124 -352 2 -13 9 -43 16 -68 7 -25 14 -55
16 -67 2 -13 6 -35 9 -50 3 -16 8 -46 11 -68 3 -22 7 -47 9 -55 23 -83 23
-475 1 -610 -3 -14 -7 -43 -10 -65 -8 -58 -15 -96 -32 -170 -1 -5 -5 -25 -8
-44 -4 -19 -11 -42 -16 -52 -6 -10 -10 -25 -10 -34 0 -30 -92 -271 -147 -385
-118 -243 -270 -457 -460 -649 l-83 -83 27 -21 c43 -32 107 -99 128 -132 27
-40 54 -97 55 -112 0 -6 4 -14 9 -17 12 -8 179 157 291 289 74 87 235 315 222
315 -4 0 -2 4 4 8 10 7 33 44 101 172 48 89 112 235 154 354 40 111 110 374
115 431 1 17 3 30 4 30 4 0 11 51 27 195 10 79 10 463 1 542 -15 134 -30 223
-62 363 -56 253 -170 537 -314 780 -39 66 -124 197 -132 205 -3 3 -17 21 -30
40 -13 19 -29 40 -35 46 -5 7 -26 31 -45 55 -97 121 -303 327 -387 387 l-31
22 -21 -68z"/>
<path d="M2739 4846 c-2 -2 -35 -7 -72 -11 -37 -3 -78 -8 -90 -11 -12 -2 -35
-7 -52 -10 -96 -17 -249 -58 -277 -74 -10 -6 -23 -10 -29 -10 -35 0 -384 -174
-444 -222 -5 -4 -53 -40 -105 -80 -197 -150 -393 -375 -519 -598 -34 -60 -62
-113 -63 -117 0 -4 -9 -26 -21 -48 -11 -22 -19 -41 -18 -43 1 -1 -5 -15 -13
-30 -20 -39 -77 -214 -72 -220 4 -3 90 60 106 79 9 11 235 166 265 183 17 9
46 26 65 38 36 21 247 128 254 128 2 0 21 8 42 17 22 9 41 17 44 18 3 1 48 15
100 32 106 35 158 49 210 58 130 23 199 32 255 31 36 -1 65 1 65 4 0 8 191 -3
260 -15 65 -11 112 -16 200 -21 136 -8 158 -8 230 0 36 3 85 8 110 11 52 5
196 45 255 71 22 10 43 17 48 16 4 -1 7 3 7 8 0 6 6 10 13 10 24 0 141 85 207
150 63 62 114 133 150 205 8 17 19 33 25 37 5 4 7 8 3 8 -4 0 4 31 17 69 l23
68 -77 41 c-170 90 -403 171 -569 198 -20 3 -62 10 -92 15 -54 9 -433 22 -441
15z"/>
<path d="M4364 4202 c5 -8 8 -26 21 -99 4 -29 14 -119 21 -188 4 -52 5 -360 0
-405 -3 -32 -14 -124 -20 -175 -8 -57 -20 -118 -38 -190 -11 -44 -21 -87 -23
-95 -4 -22 -75 -211 -88 -235 -6 -11 -12 -24 -13 -30 -1 -5 -18 -39 -38 -73
-20 -35 -36 -68 -36 -73 0 -5 -4 -9 -8 -9 -5 0 -13 -10 -19 -23 -11 -23 -129
-184 -148 -202 -13 -12 -129 -183 -138 -205 -4 -8 -16 -29 -26 -47 -22 -35
-99 -214 -106 -248 -2 -5 -8 -30 -15 -55 -17 -63 -20 -82 -24 -190 -5 -117 6
-198 39 -297 28 -83 89 -195 137 -249 l30 -34 47 26 c46 27 201 132 211 143 3
3 28 24 55 46 132 106 305 300 410 464 117 181 243 488 271 661 2 14 7 36 10
50 29 121 42 462 23 593 -4 28 -10 68 -12 87 -4 28 -29 153 -42 205 -1 6 -7
23 -13 38 -7 16 -12 35 -12 42 0 26 -87 239 -135 330 -78 149 -163 273 -295
428 -14 17 -36 24 -26 9z"/>
<path d="M2765 3638 c-60 -11 -137 -34 -185 -56 -19 -9 -38 -16 -41 -17 -3 0
-37 -20 -75 -44 -171 -110 -316 -313 -350 -491 -3 -14 -9 -42 -14 -63 -20 -91
2 -315 39 -402 63 -146 100 -202 186 -288 71 -72 101 -97 115 -97 6 0 10 -4
10 -8 0 -8 111 -66 173 -91 31 -12 98 -28 162 -39 52 -8 186 -7 250 3 60 9
198 54 206 67 3 5 8 9 10 7 5 -2 92 41 99 50 3 3 21 18 40 32 146 110 255 279
297 459 28 120 22 291 -13 410 -81 271 -300 480 -584 555 -73 20 -248 27 -325
13z"/>
<path d="M215 3078 c-71 -19 -146 -84 -188 -163 -17 -32 -21 -58 -21 -125 -1
-76 3 -91 29 -139 56 -102 168 -169 275 -165 73 3 156 40 206 91 24 25 44 51
44 58 0 7 6 18 14 24 34 28 39 167 9 241 -4 8 -7 17 -7 20 -5 20 -56 81 -90
107 -73 56 -178 76 -271 51z"/>
<path d="M1018 2864 c-2 -1 -30 -5 -62 -8 -33 -3 -63 -11 -66 -17 -7 -10 -6
-44 5 -179 5 -67 11 -117 20 -160 3 -14 8 -41 11 -60 14 -76 61 -238 94 -320
31 -78 73 -174 80 -180 3 -3 15 -25 27 -50 35 -70 87 -158 116 -195 4 -5 31
-41 60 -80 51 -67 178 -207 226 -249 13 -12 34 -31 46 -42 39 -39 209 -160
295 -212 75 -45 157 -86 270 -135 84 -37 298 -100 380 -112 24 -4 47 -8 50
-10 19 -12 160 -20 340 -19 207 1 235 3 370 30 41 9 86 18 100 20 38 8 35 11
-22 29 -142 46 -487 204 -496 227 -2 4 -8 8 -14 8 -6 0 -30 14 -55 30 -24 17
-47 30 -50 30 -3 0 -22 14 -43 30 -21 17 -42 30 -48 30 -6 0 -12 3 -14 8 -1 4
-34 31 -73 61 -91 71 -223 198 -294 286 -120 145 -187 257 -266 440 -130 300
-263 487 -447 626 -116 87 -260 149 -380 164 -60 7 -156 13 -160 9z"/>
<path d="M495 2299 c-70 -30 -195 -44 -276 -29 l-39 7 6 -36 c30 -172 147
-494 246 -681 184 -343 402 -614 688 -853 98 -82 302 -226 395 -278 92 -51
276 -139 355 -169 47 -18 94 -36 105 -41 79 -33 336 -99 465 -119 41 -6 86
-13 100 -16 111 -18 510 -26 625 -11 28 4 73 9 100 12 179 21 595 129 595 154
0 4 -9 16 -20 26 -11 10 -20 24 -20 32 0 7 -4 13 -8 13 -9 0 -64 107 -75 145
-10 33 -19 79 -19 97 1 19 -6 18 -91 -11 -60 -21 -238 -66 -297 -75 -19 -3
-44 -7 -55 -10 -11 -2 -49 -7 -85 -11 -36 -4 -78 -9 -95 -11 -41 -5 -363 -5
-400 0 -16 2 -55 7 -85 10 -47 6 -166 26 -235 40 -70 14 -272 74 -320 95 -11
5 -59 25 -106 45 -104 43 -184 82 -221 108 -16 11 -28 17 -28 14 0 -5 -95 55
-117 74 -7 5 -15 10 -18 10 -7 0 -167 119 -225 166 -86 71 -275 269 -340 354
-14 18 -31 39 -37 46 -7 7 -13 16 -13 21 0 4 -10 20 -22 34 -26 29 -28 32
-101 154 -95 157 -191 368 -224 490 -17 63 -63 218 -65 220 -2 1 -21 -6 -43
-16z"/>
<path d="M4138 891 c-208 -82 -259 -344 -98 -501 143 -139 387 -95 476 86 38
78 40 186 4 258 -31 62 -88 118 -148 148 -63 30 -168 34 -234 9z"/>
</g>
</svg>
